<?xml version="1.0" encoding="UTF-8"?>
<svg xmlns="http://www.w3.org/2000/svg" width="1460" height="920" viewBox="0 0 1460 920" font-family="Inter, Segoe UI, Arial, sans-serif">
<rect width="1460" height="920" fill="#F4F6F9"/>
<text x="40" y="32" font-size="22" font-weight="700" fill="#032D60">Supply Operations — Salesforce Data Model</text>
<text x="40" y="54" font-size="13" fill="#5C5C5C">Whiteboard ERD converted to Salesforce objects. Solid green = master-detail, dashed blue = lookup, gray = standard.</text>
<rect x="1040" y="12" width="14" height="14" rx="2" fill="#E8F4FF" stroke="#0B5CAB"/>
<text x="1060" y="24" font-size="12" fill="#032D60">Standard</text>
<rect x="1140" y="12" width="14" height="14" rx="2" fill="#E3F3E1" stroke="#2E844A"/>
<text x="1160" y="24" font-size="12" fill="#032D60">Custom</text>
<rect x="1230" y="12" width="14" height="14" rx="2" fill="#F3E8FD" stroke="#9050E9"/>
<text x="1250" y="24" font-size="12" fill="#032D60">Setup</text>
<rect x="24" y="72" width="262" height="762" rx="12" fill="none" stroke="#DD7A01" stroke-dasharray="6 4" stroke-width="2"/>
<text x="36" y="68" font-size="11" font-weight="700" fill="#A15C00">SUPPLIER DOMAIN</text>
<defs>
  <marker id="arrow-md" markerWidth="10" markerHeight="8" refX="8" refY="4" orient="auto"><polygon points="0 0, 10 4, 0 8" fill="#2E844A"/></marker>
  <marker id="arrow-lookup" markerWidth="10" markerHeight="8" refX="8" refY="4" orient="auto"><polygon points="0 0, 10 4, 0 8" fill="#0B5CAB"/></marker>
  <marker id="arrow-standard" markerWidth="10" markerHeight="8" refX="8" refY="4" orient="auto"><polygon points="0 0, 10 4, 0 8" fill="#5C5C5C"/></marker>
</defs>
<line x1="231.4" y1="198.0" x2="492.9" y2="400.0" stroke="#0B5CAB" stroke-width="1.6" stroke-dasharray="6 4" marker-end="url(#arrow-lookup)"/>
<text x="362.1" y="293.0" font-size="10" text-anchor="middle" fill="#0B5CAB">Lookup</text>
<line x1="270.0" y1="338.2" x2="470.0" y2="423.7" stroke="#2E844A" stroke-width="2.4" marker-end="url(#arrow-md)"/>
<text x="370.0" y="374.9" font-size="10" text-anchor="middle" fill="#2E844A">Master-Detail</text>
<line x1="270.0" y1="448.5" x2="470.0" y2="465.1" stroke="#0B5CAB" stroke-width="1.6" stroke-dasharray="6 4" marker-end="url(#arrow-lookup)"/>
<text x="370.0" y="450.8" font-size="10" text-anchor="middle" fill="#0B5CAB">Lookup</text>
<line x1="155.0" y1="530.0" x2="155.0" y2="498.0" stroke="#2E844A" stroke-width="2.4" marker-end="url(#arrow-md)"/>
<text x="155.0" y="508.0" font-size="10" text-anchor="middle" fill="#2E844A">Master-Detail</text>
<polyline points="270,759 305,759 305,548 470,548" fill="none" stroke="#0B5CAB" stroke-width="1.6" stroke-dasharray="6 4" marker-end="url(#arrow-lookup)"/>
<text x="337.5" y="647.5" font-size="10" text-anchor="middle" fill="#0B5CAB">Lookup</text>
<line x1="505.6" y1="190.0" x2="524.4" y2="210.0" stroke="#2E844A" stroke-width="2.4" marker-end="url(#arrow-md)"/>
<text x="515.0" y="194.0" font-size="10" text-anchor="middle" fill="#2E844A">Master-Detail</text>
<line x1="651.6" y1="190.0" x2="633.4" y2="210.0" stroke="#2E844A" stroke-width="2.4" marker-end="url(#arrow-md)"/>
<text x="642.5" y="194.0" font-size="10" text-anchor="middle" fill="#2E844A">Master-Detail</text>
<line x1="582.9" y1="328.0" x2="586.4" y2="400.0" stroke="#5C5C5C" stroke-width="1.6" marker-end="url(#arrow-standard)"/>
<text x="584.6" y="358.0" font-size="10" text-anchor="middle" fill="#5C5C5C">Standard</text>
<line x1="1290.0" y1="190.0" x2="1290.0" y2="220.0" stroke="#2E844A" stroke-width="2.4" marker-end="url(#arrow-md)"/>
<text x="1290.0" y="199.0" font-size="10" text-anchor="middle" fill="#2E844A">Master-Detail</text>
<line x1="1290.0" y1="338.0" x2="1290.0" y2="360.0" stroke="#0B5CAB" stroke-width="1.6" stroke-dasharray="6 4" marker-end="url(#arrow-lookup)"/>
<text x="1290.0" y="343.0" font-size="10" text-anchor="middle" fill="#0B5CAB">Lookup</text>
<polyline points="1170,419 1088,419 1088,475 710,475" fill="none" stroke="#5C5C5C" stroke-width="1.6" marker-end="url(#arrow-standard)"/>
<text x="1014.0" y="441.0" font-size="10" text-anchor="middle" fill="#5C5C5C">Standard</text>
<line x1="478.5" y1="620.0" x2="532.3" y2="550.0" stroke="#5C5C5C" stroke-width="1.6" marker-end="url(#arrow-standard)"/>
<text x="505.4" y="579.0" font-size="10" text-anchor="middle" fill="#5C5C5C">Standard</text>
<line x1="649.5" y1="620.0" x2="620.8" y2="550.0" stroke="#5C5C5C" stroke-width="1.6" marker-end="url(#arrow-standard)"/>
<text x="635.1" y="579.0" font-size="10" text-anchor="middle" fill="#5C5C5C">Standard</text>
<line x1="670.0" y1="720.0" x2="670.0" y2="760.0" stroke="#5C5C5C" stroke-width="1.6" marker-end="url(#arrow-standard)"/>
<text x="670.0" y="734.0" font-size="10" text-anchor="middle" fill="#5C5C5C">Standard</text>
<line x1="860.0" y1="463.5" x2="710.0" y2="469.9" stroke="#5C5C5C" stroke-width="1.6" marker-end="url(#arrow-standard)"/>
<text x="785.0" y="460.7" font-size="10" text-anchor="middle" fill="#5C5C5C">Standard</text>
<line x1="965.0" y1="368.0" x2="965.0" y2="400.0" stroke="#2E844A" stroke-width="2.4" marker-end="url(#arrow-md)"/>
<text x="965.0" y="378.0" font-size="10" text-anchor="middle" fill="#2E844A">Master-Detail</text>
<line x1="860.0" y1="355.5" x2="710.0" y2="421.9" stroke="#0B5CAB" stroke-width="1.6" stroke-dasharray="6 4" marker-end="url(#arrow-lookup)"/>
<text x="785.0" y="382.7" font-size="10" text-anchor="middle" fill="#0B5CAB">Lookup</text>
<line x1="965.0" y1="560.0" x2="965.0" y2="518.0" stroke="#2E844A" stroke-width="2.4" marker-end="url(#arrow-md)"/>
<text x="965.0" y="533.0" font-size="10" text-anchor="middle" fill="#2E844A">Master-Detail</text>
<line x1="860.0" y1="578.7" x2="710.0" y2="521.1" stroke="#0B5CAB" stroke-width="1.6" stroke-dasharray="6 4" marker-end="url(#arrow-lookup)"/>
<text x="785.0" y="543.9" font-size="10" text-anchor="middle" fill="#0B5CAB">Lookup</text>
<line x1="1144.9" y1="560.0" x2="1070.0" y2="517.9" stroke="#2E844A" stroke-width="2.4" marker-end="url(#arrow-md)"/>
<text x="1107.5" y="533.0" font-size="10" text-anchor="middle" fill="#2E844A">Master-Detail</text>
<line x1="1140.0" y1="619.0" x2="1070.0" y2="619.0" stroke="#0B5CAB" stroke-width="1.6" stroke-dasharray="6 4" marker-end="url(#arrow-lookup)"/>
<text x="1105.0" y="613.0" font-size="10" text-anchor="middle" fill="#0B5CAB">Lookup</text>
<line x1="1250.0" y1="720.0" x2="1250.0" y2="678.0" stroke="#2E844A" stroke-width="2.4" marker-end="url(#arrow-md)"/>
<text x="1250.0" y="693.0" font-size="10" text-anchor="middle" fill="#2E844A">Master-Detail</text>
<rect x="40" y="80" width="230" height="118" rx="10" fill="#E3F3E1" stroke="#2E844A" stroke-width="2"/>
<rect x="40" y="80" width="230" height="28" rx="10" fill="#2E844A"/>
<rect x="40" y="98" width="230" height="10" fill="#2E844A"/>
<text x="50" y="99" font-size="13" font-weight="700" fill="#FFFFFF">Supplier Application</text>
<text x="260" y="98" font-size="9" text-anchor="end" fill="#FFFFFF">CSTM</text>
<text x="52" y="128" font-size="12" fill="#1B5E20">Lookup → Account</text>
<text x="52" y="146" font-size="12" fill="#1B5E20">Status, Type, Dates</text>
<rect x="40" y="230" width="230" height="118" rx="10" fill="#E3F3E1" stroke="#2E844A" stroke-width="2"/>
<rect x="40" y="230" width="230" height="28" rx="10" fill="#2E844A"/>
<rect x="40" y="248" width="230" height="10" fill="#2E844A"/>
<text x="50" y="249" font-size="13" font-weight="700" fill="#FFFFFF">F&amp;D Certificate</text>
<text x="260" y="248" font-size="9" text-anchor="end" fill="#FFFFFF">CSTM</text>
<text x="52" y="278" font-size="12" fill="#1B5E20">MD → Account</text>
<text x="52" y="296" font-size="12" fill="#1B5E20">Type, Issue, Expiry</text>
<rect x="40" y="380" width="230" height="118" rx="10" fill="#E3F3E1" stroke="#2E844A" stroke-width="2"/>
<rect x="40" y="380" width="230" height="28" rx="10" fill="#2E844A"/>
<rect x="40" y="398" width="230" height="10" fill="#2E844A"/>
<text x="50" y="399" font-size="13" font-weight="700" fill="#FFFFFF">Supplier Catalogue</text>
<text x="260" y="398" font-size="9" text-anchor="end" fill="#FFFFFF">CSTM</text>
<text x="52" y="428" font-size="12" fill="#1B5E20">Lookup → Account</text>
<text x="52" y="446" font-size="12" fill="#1B5E20">Status, Effective dates</text>
<rect x="40" y="530" width="230" height="132" rx="10" fill="#E3F3E1" stroke="#2E844A" stroke-width="2"/>
<rect x="40" y="530" width="230" height="28" rx="10" fill="#2E844A"/>
<rect x="40" y="548" width="230" height="10" fill="#2E844A"/>
<text x="50" y="549" font-size="13" font-weight="700" fill="#FFFFFF">Supplier Catalogue Item</text>
<text x="260" y="548" font-size="9" text-anchor="end" fill="#FFFFFF">CSTM</text>
<text x="52" y="578" font-size="12" fill="#1B5E20">MD → Catalogue</text>
<text x="52" y="596" font-size="12" fill="#1B5E20">Lookup → Product2</text>
<text x="52" y="614" font-size="12" fill="#1B5E20">SKU, Price, UOM</text>
<rect x="40" y="700" width="230" height="118" rx="10" fill="#E3F3E1" stroke="#2E844A" stroke-width="2"/>
<rect x="40" y="700" width="230" height="28" rx="10" fill="#2E844A"/>
<rect x="40" y="718" width="230" height="10" fill="#2E844A"/>
<text x="50" y="719" font-size="13" font-weight="700" fill="#FFFFFF">Pickup Delivery Schedule</text>
<text x="260" y="718" font-size="9" text-anchor="end" fill="#FFFFFF">CSTM</text>
<text x="52" y="748" font-size="12" fill="#1B5E20">Lookup → Account</text>
<text x="52" y="766" font-size="12" fill="#1B5E20">Type, Day, Window</text>
<rect x="340" y="72" width="220" height="118" rx="10" fill="#E3F3E1" stroke="#2E844A" stroke-width="2"/>
<rect x="340" y="72" width="220" height="28" rx="10" fill="#2E844A"/>
<rect x="340" y="90" width="220" height="10" fill="#2E844A"/>
<text x="350" y="91" font-size="13" font-weight="700" fill="#FFFFFF">Delivery Schedule</text>
<text x="550" y="90" font-size="9" text-anchor="end" fill="#FFFFFF">CSTM</text>
<text x="352" y="120" font-size="12" fill="#1B5E20">MD → Contract</text>
<text x="352" y="138" font-size="12" fill="#1B5E20">Frequency, Dates</text>
<rect x="590" y="72" width="230" height="118" rx="10" fill="#E3F3E1" stroke="#2E844A" stroke-width="2"/>
<rect x="590" y="72" width="230" height="28" rx="10" fill="#2E844A"/>
<rect x="590" y="90" width="230" height="10" fill="#2E844A"/>
<text x="600" y="91" font-size="13" font-weight="700" fill="#FFFFFF">Volume Discount Tier</text>
<text x="810" y="90" font-size="9" text-anchor="end" fill="#FFFFFF">CSTM</text>
<text x="602" y="120" font-size="12" fill="#1B5E20">MD → Contract</text>
<text x="602" y="138" font-size="12" fill="#1B5E20">Min/Max qty, %</text>
<rect x="470" y="210" width="220" height="118" rx="10" fill="#E8F4FF" stroke="#0B5CAB" stroke-width="2"/>
<rect x="470" y="210" width="220" height="28" rx="10" fill="#0B5CAB"/>
<rect x="470" y="228" width="220" height="10" fill="#0B5CAB"/>
<text x="480" y="229" font-size="13" font-weight="700" fill="#FFFFFF">Contract</text>
<text x="680" y="228" font-size="9" text-anchor="end" fill="#FFFFFF">STD</text>
<text x="482" y="258" font-size="12" fill="#032D60">Lookup → Account</text>
<text x="482" y="276" font-size="12" fill="#032D60">Standard Salesforce</text>
<rect x="1170" y="72" width="240" height="118" rx="10" fill="#E3F3E1" stroke="#2E844A" stroke-width="2"/>
<rect x="1170" y="72" width="240" height="28" rx="10" fill="#2E844A"/>
<rect x="1170" y="90" width="240" height="10" fill="#2E844A"/>
<text x="1180" y="91" font-size="13" font-weight="700" fill="#FFFFFF">Commitment Milestone</text>
<text x="1400" y="90" font-size="9" text-anchor="end" fill="#FFFFFF">CSTM</text>
<text x="1182" y="120" font-size="12" fill="#1B5E20">MD → Commitment Process</text>
<text x="1182" y="138" font-size="12" fill="#1B5E20">Due date, Status</text>
<rect x="1170" y="220" width="240" height="118" rx="10" fill="#E3F3E1" stroke="#2E844A" stroke-width="2"/>
<rect x="1170" y="220" width="240" height="28" rx="10" fill="#2E844A"/>
<rect x="1170" y="238" width="240" height="10" fill="#2E844A"/>
<text x="1180" y="239" font-size="13" font-weight="700" fill="#FFFFFF">Commitment Process</text>
<text x="1400" y="238" font-size="9" text-anchor="end" fill="#FFFFFF">CSTM</text>
<text x="1182" y="268" font-size="12" fill="#1B5E20">Lookup → Entitlement</text>
<text x="1182" y="286" font-size="12" fill="#1B5E20">Lookup → Account</text>
<rect x="1170" y="360" width="240" height="118" rx="10" fill="#E8F4FF" stroke="#0B5CAB" stroke-width="2"/>
<rect x="1170" y="360" width="240" height="28" rx="10" fill="#0B5CAB"/>
<rect x="1170" y="378" width="240" height="10" fill="#0B5CAB"/>
<text x="1180" y="379" font-size="13" font-weight="700" fill="#FFFFFF">Entitlement</text>
<text x="1400" y="378" font-size="9" text-anchor="end" fill="#FFFFFF">STD</text>
<text x="1182" y="408" font-size="12" fill="#032D60">Lookup → Account</text>
<text x="1182" y="426" font-size="12" fill="#032D60">Lookup → Contract</text>
<rect x="470" y="400" width="240" height="150" rx="10" fill="#E8F4FF" stroke="#0B5CAB" stroke-width="2"/>
<rect x="470" y="400" width="240" height="28" rx="10" fill="#0B5CAB"/>
<rect x="470" y="418" width="240" height="10" fill="#0B5CAB"/>
<text x="480" y="419" font-size="13" font-weight="700" fill="#FFFFFF">Account</text>
<text x="700" y="418" font-size="9" text-anchor="end" fill="#FFFFFF">STD</text>
<text x="482" y="448" font-size="12" fill="#032D60">Hub object</text>
<text x="482" y="466" font-size="12" fill="#032D60">Record types: Customer, Supplier</text>
<text x="482" y="484" font-size="12" fill="#032D60">Account Type, Status</text>
<rect x="860" y="400" width="210" height="118" rx="10" fill="#E8F4FF" stroke="#0B5CAB" stroke-width="2"/>
<rect x="860" y="400" width="210" height="28" rx="10" fill="#0B5CAB"/>
<rect x="860" y="418" width="210" height="10" fill="#0B5CAB"/>
<text x="870" y="419" font-size="13" font-weight="700" fill="#FFFFFF">Order</text>
<text x="1060" y="418" font-size="9" text-anchor="end" fill="#FFFFFF">STD</text>
<text x="872" y="448" font-size="12" fill="#032D60">Lookup → Account</text>
<text x="872" y="466" font-size="12" fill="#032D60">Lookup → Contract</text>
<rect x="860" y="250" width="210" height="118" rx="10" fill="#E3F3E1" stroke="#2E844A" stroke-width="2"/>
<rect x="860" y="250" width="210" height="28" rx="10" fill="#2E844A"/>
<rect x="860" y="268" width="210" height="10" fill="#2E844A"/>
<text x="870" y="269" font-size="13" font-weight="700" fill="#FFFFFF">Invoice</text>
<text x="1060" y="268" font-size="9" text-anchor="end" fill="#FFFFFF">CSTM</text>
<text x="872" y="298" font-size="12" fill="#1B5E20">MD → Order</text>
<text x="872" y="316" font-size="12" fill="#1B5E20">Lookup → Account</text>
<rect x="860" y="560" width="210" height="118" rx="10" fill="#E3F3E1" stroke="#2E844A" stroke-width="2"/>
<rect x="860" y="560" width="210" height="28" rx="10" fill="#2E844A"/>
<rect x="860" y="578" width="210" height="10" fill="#2E844A"/>
<text x="870" y="579" font-size="13" font-weight="700" fill="#FFFFFF">Fulfillment Order</text>
<text x="1060" y="578" font-size="9" text-anchor="end" fill="#FFFFFF">CSTM</text>
<text x="872" y="608" font-size="12" fill="#1B5E20">MD → Order</text>
<text x="872" y="626" font-size="12" fill="#1B5E20">Lookup → Account</text>
<rect x="1140" y="560" width="220" height="118" rx="10" fill="#E3F3E1" stroke="#2E844A" stroke-width="2"/>
<rect x="1140" y="560" width="220" height="28" rx="10" fill="#2E844A"/>
<rect x="1140" y="578" width="220" height="10" fill="#2E844A"/>
<text x="1150" y="579" font-size="13" font-weight="700" fill="#FFFFFF">Shipment Lot</text>
<text x="1350" y="578" font-size="9" text-anchor="end" fill="#FFFFFF">CSTM</text>
<text x="1152" y="608" font-size="12" fill="#1B5E20">MD → Order</text>
<text x="1152" y="626" font-size="12" fill="#1B5E20">Lookup → Fulfillment Order</text>
<rect x="1140" y="720" width="220" height="118" rx="10" fill="#E3F3E1" stroke="#2E844A" stroke-width="2"/>
<rect x="1140" y="720" width="220" height="28" rx="10" fill="#2E844A"/>
<rect x="1140" y="738" width="220" height="10" fill="#2E844A"/>
<text x="1150" y="739" font-size="13" font-weight="700" fill="#FFFFFF">Delivery Note</text>
<text x="1350" y="738" font-size="9" text-anchor="end" fill="#FFFFFF">CSTM</text>
<text x="1152" y="768" font-size="12" fill="#1B5E20">MD → Shipment Lot</text>
<text x="1152" y="786" font-size="12" fill="#1B5E20">Marked custom on board</text>
<rect x="340" y="620" width="200" height="100" rx="10" fill="#E8F4FF" stroke="#0B5CAB" stroke-width="2"/>
<rect x="340" y="620" width="200" height="28" rx="10" fill="#0B5CAB"/>
<rect x="340" y="638" width="200" height="10" fill="#0B5CAB"/>
<text x="350" y="639" font-size="13" font-weight="700" fill="#FFFFFF">Contact</text>
<text x="530" y="638" font-size="9" text-anchor="end" fill="#FFFFFF">STD</text>
<text x="352" y="668" font-size="12" fill="#032D60">Lookup → Account</text>
<rect x="570" y="620" width="200" height="100" rx="10" fill="#E8F4FF" stroke="#0B5CAB" stroke-width="2"/>
<rect x="570" y="620" width="200" height="28" rx="10" fill="#0B5CAB"/>
<rect x="570" y="638" width="200" height="10" fill="#0B5CAB"/>
<text x="580" y="639" font-size="13" font-weight="700" fill="#FFFFFF">Case</text>
<text x="760" y="638" font-size="9" text-anchor="end" fill="#FFFFFF">STD</text>
<text x="582" y="668" font-size="12" fill="#032D60">Lookup → Account</text>
<text x="582" y="686" font-size="12" fill="#032D60">Lookup → Entitlement</text>
<rect x="570" y="760" width="200" height="100" rx="10" fill="#F3E8FD" stroke="#9050E9" stroke-width="2"/>
<rect x="570" y="760" width="200" height="28" rx="10" fill="#9050E9"/>
<rect x="570" y="778" width="200" height="10" fill="#9050E9"/>
<text x="580" y="779" font-size="13" font-weight="700" fill="#FFFFFF">Business Hours</text>
<text x="760" y="778" font-size="9" text-anchor="end" fill="#FFFFFF">SETUP</text>
<text x="582" y="808" font-size="12" fill="#401A75">Case.BusinessHoursId</text>
<text x="582" y="826" font-size="12" fill="#401A75">Setup object</text>
</svg>